<svg fill="none" preserveAspectRatio="none" viewBox="0 0 100 100" xmlns="http://www.w3.org/2000/svg"><path clip-rule="evenodd" d="m0 0 2.36111 16.7095c2.43056 16.7095 7.15278 49.8715 11.94449 62.982 4.7222 12.8535 9.5138 5.3985 14.2361-9.2545 4.7916-14.91 9.5833-37.018 14.3055-50.1285 4.7917-12.85349 9.5139-16.45246 14.3056-9.2545 4.7222 7.455 9.5139 25.964 14.3055 40.874 4.7223 14.653 9.5139 25.964 14.2361 16.7095 4.7917-9.2545 9.5139-39.0745 11.9445-53.7275l2.3611-14.91v100h-2.3611c-2.4306 0-7.1528 0-11.9445 0-4.7222 0-9.5138 0-14.2361 0-4.7916 0-9.5833 0-14.3055 0-4.7917 0-9.5139 0-14.3056 0-4.7222 0-9.5139 0-14.3055 0-4.7223 0-9.5139 0-14.2361 0-4.79171 0-9.51393 0-11.94449 0h-2.36111z" fill="#fff" fill-rule="evenodd"/></svg>